<svg width="471" height="471" viewBox="0 0 471 471" fill="none" xmlns="http://www.w3.org/2000/svg">
<rect width="471" height="471" rx="50" fill="#0055D3"/>
<path d="M199.048 258.114C199.048 261.671 197.993 265.148 196.018 268.105C194.043 271.063 191.235 273.368 187.951 274.729C184.666 276.09 181.052 276.446 177.565 275.752C174.078 275.058 170.875 273.346 168.361 270.831C165.846 268.315 164.134 265.111 163.441 261.623C162.747 258.134 163.103 254.518 164.464 251.232C165.824 247.946 168.128 245.137 171.085 243.161C174.041 241.185 177.516 240.13 181.072 240.13C185.839 240.13 190.411 242.025 193.783 245.398C197.154 248.77 199.048 253.345 199.048 258.114ZM288.928 276.098C292.484 276.098 295.959 275.043 298.915 273.067C301.872 271.091 304.176 268.282 305.536 264.996C306.897 261.71 307.253 258.094 306.559 254.606C305.866 251.117 304.154 247.913 301.639 245.398C299.125 242.883 295.922 241.17 292.435 240.476C288.948 239.782 285.334 240.138 282.049 241.499C278.765 242.861 275.957 245.166 273.982 248.123C272.007 251.08 270.952 254.557 270.952 258.114C270.952 262.884 272.846 267.458 276.217 270.831C279.589 274.203 284.161 276.098 288.928 276.098ZM391.882 264.047C388.721 265.495 385.286 266.25 381.81 266.26C376.329 266.253 371.026 264.32 366.825 260.799V324.054C366.807 339.947 360.488 355.184 349.255 366.422C338.021 377.66 322.791 383.982 306.905 384H163.095C147.209 383.982 131.979 377.66 120.745 366.422C109.512 355.184 103.193 339.947 103.175 324.054V260.799C98.9744 264.32 93.6707 266.253 88.1904 266.26C84.7136 266.25 81.2793 265.496 78.1183 264.047C73.1924 261.881 69.1531 258.098 66.6688 253.323C64.1844 248.549 63.4039 243.068 64.4563 237.789L89.0506 106.56C89.653 103.346 90.9058 100.29 92.732 97.5789C94.5583 94.8678 96.9194 92.5588 99.6703 90.794C102.421 89.0292 105.504 87.8458 108.729 87.3165C111.953 86.7872 115.252 86.9232 118.423 87.7161L200.524 108.25H269.476L351.577 87.7161C354.747 86.9231 358.046 86.787 361.271 87.3162C364.495 87.8454 367.578 89.0286 370.329 90.7933C373.079 92.5579 375.44 94.8666 377.267 97.5775C379.093 100.288 380.346 103.344 380.948 106.557L405.544 237.79C406.596 243.069 405.816 248.549 403.331 253.323C400.847 258.098 396.808 261.881 391.882 264.047ZM342.857 231.199L265.127 132.228H204.873L127.143 231.199V324.054C127.154 333.59 130.945 342.732 137.685 349.475C144.425 356.218 153.564 360.011 163.095 360.022H223.016V341.01L202.557 320.543C200.31 318.294 199.047 315.245 199.047 312.065C199.048 308.885 200.31 305.835 202.558 303.587C204.806 301.339 207.854 300.076 211.032 300.076C214.211 300.076 217.259 301.339 219.506 303.588L235 319.089L250.494 303.588C252.741 301.339 255.789 300.076 258.968 300.076C262.146 300.076 265.194 301.339 267.442 303.587C269.69 305.835 270.952 308.885 270.953 312.065C270.953 315.244 269.69 318.294 267.443 320.543L246.984 341.01V360.022H306.905C316.436 360.011 325.575 356.218 332.315 349.475C339.055 342.732 342.846 333.59 342.857 324.054V231.199Z" fill="white"/>
</svg>
